<?xml version="1.0" encoding="iso-8859-1"?>
<!-- Uploaded to: SVG Repo, www.svgrepo.com, Generator: SVG Repo Mixer Tools -->
<svg fill="#000000" height="800px" width="800px" version="1.1" id="Layer_1" xmlns="http://www.w3.org/2000/svg" xmlns:xlink="http://www.w3.org/1999/xlink" 
	 viewBox="0 0 512 512" xml:space="preserve">
<g>
	<g>
		<path d="M89.537,176.65c-12.064-12.058-26.41-20.628-40.399-24.127c-15.826-3.971-30.118-0.968-39.26,8.197
			c-17.867,17.867-10.87,52.864,15.931,79.665c16.794,16.789,36.801,25.81,53.794,25.81c10.133,0,19.193-3.212,25.865-9.88
			C123.335,238.448,116.338,203.451,89.537,176.65z M89.537,240.384c-7.509,7.503-29.556,2.299-47.798-15.931
			c-18.236-18.241-23.451-40.278-15.931-47.803c2.2-2.2,5.671-3.322,9.979-3.322c2.393,0,5.05,0.341,7.888,1.056
			c9.935,2.486,20.848,9.12,29.931,18.197C91.842,210.822,97.057,232.859,89.537,240.384z"/>
	</g>
</g>
<g>
	<g>
		<path d="M215.223,98.977c-14.798-51.61-54.905-83.933-91.371-73.416c-18.203,5.215-32.087,20.189-39.101,42.17
			c-6.497,20.375-6.315,44.701,0.511,68.509c12.927,45.075,45.168,75.385,77.404,75.385c4.676,0,9.352-0.638,13.967-1.969
			c18.203-5.215,32.087-20.189,39.101-42.17C222.231,147.11,222.049,122.785,215.223,98.977z M194.264,160.642
			c-4.643,14.566-13.109,24.281-23.836,27.362c-23.495,6.711-52.573-19.826-63.503-57.969c-5.616-19.584-5.864-39.277-0.704-55.46
			c4.643-14.567,13.109-24.281,23.836-27.362c2.459-0.704,4.978-1.045,7.536-1.045c21.839,0,46.175,24.864,55.967,59.014
			C199.176,124.765,199.424,144.459,194.264,160.642z"/>
	</g>
</g>
<g>
	<g>
		<path d="M371.416,77.303c-7.393-21.85-21.536-36.581-39.827-41.477c-18.258-4.874-37.896,0.781-55.23,16.008
			c-16.063,14.116-28.434,35.063-34.843,58.992c-6.414,23.929-6.172,48.254,0.682,68.509c7.393,21.85,21.536,36.592,39.827,41.488
			c4.34,1.166,8.724,1.727,13.097,1.727c32.533,0,64.724-31.025,76.975-76.738C378.513,121.883,378.27,97.557,371.416,77.303z
			 M350.337,139.981c-10.276,38.342-38.908,65.362-62.48,59.08c-10.782-2.894-19.413-12.465-24.314-26.944
			c-5.441-16.085-5.534-35.789-0.264-55.461c5.27-19.671,15.199-36.68,27.956-47.891c11.486-10.089,23.758-14.06,34.524-11.178
			c10.776,2.894,19.413,12.454,24.314,26.944C355.513,100.616,355.607,120.309,350.337,139.981z"/>
	</g>
</g>
<g>
	<g>
		<path d="M500.342,151.181c-22.796-26.207-70.104-21.157-107.698,11.519c-37.593,32.687-49.184,78.829-26.393,105.057
			c9.489,10.914,23.467,16.668,40.041,16.668c3.449,0,7.008-0.242,10.661-0.748c19.484-2.684,39.728-12.421,56.995-27.438
			C511.542,223.551,523.138,177.409,500.342,151.181z M459.162,239.229c-14,12.179-30.085,20.034-45.278,22.125
			c-13.461,1.87-24.314-1.122-30.624-8.384c-14.022-16.129-2.954-49.684,24.166-73.262c16.932-14.71,36.84-22.697,52.826-22.697
			c9.621,0,17.817,2.893,23.087,8.956C497.36,182.096,486.287,215.652,459.162,239.229z"/>
	</g>
</g>
<g>
	<g>
		<path d="M377.776,392.463c-0.396-7.635-0.792-15.182-0.792-22.356c0-74.549-60.648-135.191-135.191-135.191
			s-135.191,60.643-135.191,135.191c0,7.173-0.396,14.71-0.792,22.345c-1.54,29.705-3.284,63.371,17.862,84.517
			c8.461,8.46,19.21,11.453,31.124,11.453c14.677,0,31.13-4.533,47.281-8.989c14.138-3.906,28.759-7.933,39.717-7.933
			s25.579,4.027,39.717,7.933c29.248,8.064,59.526,16.415,78.41-2.464C381.065,455.823,379.316,422.157,377.776,392.463z
			 M343.989,461.038c-9.588,9.583-34.502,2.74-56.489-3.323c-15.584-4.302-31.696-8.747-45.707-8.747
			c-14.011,0-30.123,4.445-45.707,8.747c-21.982,6.062-46.874,12.916-56.484,3.323c-14.055-14.06-12.652-41.191-11.288-67.42
			c0.413-8.031,0.82-15.964,0.82-23.511c0-62.116,50.537-112.659,112.659-112.659s112.659,50.543,112.659,112.659
			c0,7.558,0.407,15.491,0.825,23.522C356.636,419.858,358.044,446.977,343.989,461.038z"/>
	</g>
</g>
</svg>